<?xml version="1.0" standalone="no"?>
<!DOCTYPE svg PUBLIC "-//W3C//DTD SVG 20010904//EN"
 "http://www.w3.org/TR/2001/REC-SVG-20010904/DTD/svg10.dtd">
<svg version="1.0" xmlns="http://www.w3.org/2000/svg"
 width="150.000000pt" height="150.000000pt" viewBox="0 0 150.000000 150.000000"
 preserveAspectRatio="xMidYMid meet">
<metadata>
Created by potrace 1.14, written by Peter Selinger 2001-2017
</metadata>
<g transform="translate(0.000000,150.000000) scale(0.100000,-0.100000)"
fill="#000000" stroke="none">
<path d="M190 1478 c-71 -27 -142 -99 -169 -173 -20 -53 -21 -74 -20 -557 0
-478 1 -506 20 -555 25 -64 93 -137 157 -166 46 -22 56 -22 562 -24 498 -2
517 -1 567 19 72 28 127 78 160 146 l28 57 2 515 c2 495 1 517 -18 568 -28 71
-99 143 -169 170 -53 20 -72 21 -560 21 -488 0 -507 -1 -560 -21z"/>
</g>
</svg>
